<svg width="1512" height="982" viewBox="0 0 1512 982" fill="none" xmlns="http://www.w3.org/2000/svg">
<g clip-path="url(#clip0_1274_833)">
<path d="M292 751.446C468.194 786.201 523.395 814.381 674 834.446" stroke="white" stroke-opacity="0.8" stroke-miterlimit="16" stroke-dasharray="2 2"/>
<path d="M673.5 834.946C932.811 812.575 1255.77 835.45 1310.15 817.199" stroke="white" stroke-opacity="0.8" stroke-miterlimit="16" stroke-dasharray="2 2"/>
<path d="M930.594 827.228L934.328 832.837C934.443 833.014 934.5 833.207 934.5 833.415C934.5 834.103 934.156 834.446 933.469 834.446C933.094 834.446 932.807 834.295 932.609 833.993L929.344 829.087L926.078 833.993C925.88 834.295 925.594 834.446 925.219 834.446C924.938 834.446 924.693 834.347 924.484 834.149C924.286 833.941 924.188 833.696 924.188 833.415C924.188 833.207 924.245 833.014 924.359 832.837L928.094 827.228L924.359 821.618C924.245 821.441 924.188 821.248 924.188 821.04C924.188 820.353 924.531 820.009 925.219 820.009C925.594 820.009 925.88 820.16 926.078 820.462L929.344 825.353L932.609 820.462C932.807 820.16 933.094 820.009 933.469 820.009C934.156 820.009 934.5 820.347 934.5 821.024C934.5 821.243 934.443 821.441 934.328 821.618L930.594 827.228Z" fill="white"/>
<path d="M894 642.446C1112.47 724.437 1168 781.413 1310 813.446" stroke="white" stroke-opacity="0.8" stroke-miterlimit="16" stroke-dasharray="2 2"/>
<path d="M1079.59 720.228L1083.33 725.837C1083.44 726.014 1083.5 726.207 1083.5 726.415C1083.5 727.103 1083.16 727.446 1082.47 727.446C1082.09 727.446 1081.81 727.295 1081.61 726.993L1078.34 722.087L1075.08 726.993C1074.88 727.295 1074.59 727.446 1074.22 727.446C1073.94 727.446 1073.69 727.347 1073.48 727.149C1073.29 726.941 1073.19 726.696 1073.19 726.415C1073.19 726.207 1073.24 726.014 1073.36 725.837L1077.09 720.228L1073.36 714.618C1073.24 714.441 1073.19 714.248 1073.19 714.04C1073.19 713.353 1073.53 713.009 1074.22 713.009C1074.59 713.009 1074.88 713.16 1075.08 713.462L1078.34 718.353L1081.61 713.462C1081.81 713.16 1082.09 713.009 1082.47 713.009C1083.16 713.009 1083.5 713.347 1083.5 714.024C1083.5 714.243 1083.44 714.441 1083.33 714.618L1079.59 720.228Z" fill="white"/>
<path d="M894 641.539C946.732 663.468 1312.23 282.053 1324.42 287.754" stroke="white" stroke-opacity="0.8" stroke-miterlimit="16" stroke-dasharray="2 2"/>
<path d="M1127.6 468.199L1131.48 473.71C1131.6 473.884 1131.66 474.075 1131.67 474.284C1131.68 474.971 1131.35 475.323 1130.66 475.341C1130.29 475.351 1130 475.207 1129.79 474.91L1126.4 470.09L1123.26 475.079C1123.07 475.386 1122.79 475.545 1122.41 475.554C1122.13 475.562 1121.89 475.469 1121.67 475.277C1121.47 475.073 1121.36 474.831 1121.36 474.55C1121.35 474.342 1121.4 474.148 1121.51 473.968L1125.1 468.264L1121.22 462.753C1121.1 462.579 1121.04 462.387 1121.04 462.179C1121.02 461.492 1121.35 461.139 1122.04 461.122C1122.42 461.112 1122.71 461.256 1122.91 461.552L1126.3 466.357L1129.44 461.384C1129.63 461.077 1129.91 460.918 1130.29 460.909C1130.98 460.891 1131.33 461.22 1131.35 461.897C1131.35 462.116 1131.3 462.315 1131.19 462.495L1127.6 468.199Z" fill="white"/>
<path d="M687.82 223.707C706.744 284.525 1320.14 270.927 1323.94 285.498" stroke="white" stroke-opacity="0.8" stroke-miterlimit="16" stroke-dasharray="2 2"/>
<path d="M997.594 274.228L1001.33 279.837C1001.44 280.014 1001.5 280.207 1001.5 280.415C1001.5 281.103 1001.16 281.446 1000.47 281.446C1000.09 281.446 999.807 281.295 999.609 280.993L996.344 276.087L993.078 280.993C992.88 281.295 992.594 281.446 992.219 281.446C991.938 281.446 991.693 281.347 991.484 281.149C991.286 280.941 991.188 280.696 991.188 280.415C991.188 280.207 991.245 280.014 991.359 279.837L995.094 274.228L991.359 268.618C991.245 268.441 991.188 268.248 991.188 268.04C991.188 267.353 991.531 267.009 992.219 267.009C992.594 267.009 992.88 267.16 993.078 267.462L996.344 272.353L999.609 267.462C999.807 267.16 1000.09 267.009 1000.47 267.009C1001.16 267.009 1001.5 267.347 1001.5 268.024C1001.5 268.243 1001.44 268.441 1001.33 268.618L997.594 274.228Z" fill="white"/>
<path d="M687 224.446C762.506 291.304 776.708 328.129 828.723 359.919" stroke="white" stroke-opacity="0.8" stroke-miterlimit="16" stroke-dasharray="2 2"/>
<path d="M758.582 298.893L754.938 293.224C754.826 293.046 754.772 292.852 754.775 292.644C754.786 291.956 755.135 291.618 755.823 291.629C756.198 291.635 756.482 291.791 756.675 292.096L759.862 297.054L763.205 292.2C763.408 291.901 763.697 291.755 764.072 291.761C764.353 291.765 764.596 291.868 764.801 292.069C764.996 292.281 765.091 292.527 765.086 292.808C765.083 293.017 765.023 293.209 764.905 293.384L761.082 298.933L764.726 304.601C764.838 304.78 764.892 304.974 764.889 305.182C764.878 305.869 764.529 306.208 763.841 306.197C763.466 306.191 763.182 306.035 762.989 305.73L759.802 300.788L756.459 305.625C756.256 305.924 755.967 306.071 755.592 306.065C754.905 306.054 754.566 305.71 754.577 305.033C754.581 304.814 754.641 304.617 754.759 304.442L758.582 298.893Z" fill="white"/>
<path d="M495.594 799.781L499.328 805.391C499.443 805.568 499.5 805.76 499.5 805.969C499.5 806.656 499.156 807 498.469 807C498.094 807 497.807 806.849 497.609 806.547L494.344 801.641L491.078 806.547C490.88 806.849 490.594 807 490.219 807C489.938 807 489.693 806.901 489.484 806.703C489.286 806.495 489.188 806.25 489.188 805.969C489.188 805.76 489.245 805.568 489.359 805.391L493.094 799.781L489.359 794.172C489.245 793.995 489.188 793.802 489.188 793.594C489.188 792.906 489.531 792.562 490.219 792.562C490.594 792.562 490.88 792.714 491.078 793.016L494.344 797.906L497.609 793.016C497.807 792.714 498.094 792.562 498.469 792.562C499.156 792.562 499.5 792.901 499.5 793.578C499.5 793.797 499.443 793.995 499.328 794.172L495.594 799.781Z" fill="white"/>
</g>
<defs>
<clipPath id="clip0_1274_833">
<rect width="1512" height="982" fill="white"/>
</clipPath>
</defs>
</svg>
